<svg width="44" height="44" viewBox="0 0 44 44" fill="none" xmlns="http://www.w3.org/2000/svg">
<circle cx="22" cy="22" r="22" fill="white"/>
<g clip-path="url(#clip0_171_277)">
<mask id="mask0_171_277" style="mask-type:luminance" maskUnits="userSpaceOnUse" x="8" y="12" width="29" height="25">
<path d="M36.6184 12H8V37H36.6184V12Z" fill="white"/>
</mask>
<g mask="url(#mask0_171_277)">
<path d="M9.7908 15.5424C10.7798 15.5424 11.5816 14.7494 11.5816 13.7712C11.5816 12.793 10.7798 12 9.7908 12C8.80177 12 8 12.793 8 13.7712C8 14.7494 8.80177 15.5424 9.7908 15.5424Z" fill="black"/>
<path d="M13.9434 22.6379C13.6331 22.6375 13.3284 22.5564 13.0598 22.4027C12.7913 22.2491 12.5683 22.0282 12.4133 21.7624C12.2583 21.4966 12.1767 21.1951 12.1768 20.8882C12.1768 20.5813 12.2584 20.2798 12.4135 20.0141L16.555 12.9175C16.6712 12.7186 16.8259 12.5443 17.0102 12.4045C17.1945 12.2647 17.4048 12.1621 17.6292 12.1027C17.8535 12.0433 18.0875 12.0282 18.3178 12.0582C18.5481 12.0883 18.7701 12.1629 18.9712 12.2778C19.1724 12.3927 19.3486 12.5456 19.4899 12.7279C19.6313 12.9102 19.735 13.1182 19.795 13.3401C19.8551 13.562 19.8704 13.7935 19.84 14.0212C19.8097 14.249 19.7343 14.4686 19.6181 14.6675L15.4776 21.7631C15.3223 22.0295 15.0986 22.2506 14.8292 22.4042C14.5598 22.5578 14.2543 22.6384 13.9434 22.6379Z" fill="black"/>
<path d="M18.129 29.8089C17.8188 29.8084 17.5141 29.7273 17.2455 29.5736C16.9769 29.4199 16.754 29.1991 16.599 28.9332C16.444 28.6674 16.3624 28.3659 16.3624 28.059C16.3624 27.7521 16.4441 27.4507 16.5991 27.1848L17.9293 24.9063C18.1637 24.5046 18.55 24.2114 19.0031 24.0913C19.4561 23.9713 19.9388 24.0341 20.345 24.2661C20.7511 24.498 21.0475 24.8801 21.1689 25.3281C21.2903 25.7762 21.2268 26.2536 20.9923 26.6554L19.6624 28.9339C19.507 29.2001 19.2835 29.4212 19.0143 29.5748C18.7452 29.7284 18.4398 29.8091 18.129 29.8089Z" fill="black"/>
<path d="M22.992 21.4782C22.6817 21.4778 22.377 21.3967 22.1084 21.2431C21.8399 21.0894 21.6169 20.8686 21.4619 20.6028C21.3069 20.3369 21.2253 20.0354 21.2253 19.7286C21.2254 19.4217 21.307 19.1202 21.4621 18.8544L24.919 12.9323C25.1535 12.5306 25.5397 12.2374 25.9928 12.1173C26.4458 11.9973 26.9285 12.0601 27.3347 12.2921C27.7409 12.524 28.0373 12.906 28.1587 13.3541C28.2801 13.8022 28.2165 14.2796 27.982 14.6814L24.5251 20.6035C24.3698 20.8697 24.1464 21.0907 23.8772 21.2443C23.608 21.3979 23.3027 21.4786 22.992 21.4782Z" fill="black"/>
<path d="M22.327 37C22.0168 36.9996 21.7121 36.9185 21.4435 36.7648C21.1749 36.6111 20.952 36.3903 20.797 36.1244C20.642 35.8585 20.5604 35.5571 20.5604 35.2502C20.5605 34.9433 20.6421 34.6418 20.7971 34.376L27.5933 22.7341C27.8278 22.3323 28.2141 22.0392 28.6671 21.9191C29.1202 21.799 29.6029 21.8619 30.009 22.0938C30.4152 22.3258 30.7116 22.7078 30.833 23.1559C30.9544 23.604 30.8909 24.0814 30.6563 24.4831L23.8601 36.1251C23.7049 36.3913 23.4814 36.6124 23.2123 36.766C22.9431 36.9196 22.6378 37.0004 22.327 37Z" fill="black"/>
<path d="M32.6566 19.306C32.3463 19.3055 32.0417 19.2244 31.7731 19.0707C31.5046 18.917 31.2816 18.6962 31.1267 18.4304C30.9717 18.1646 30.8901 17.8631 30.8901 17.5562C30.8902 17.2494 30.9718 16.9479 31.1269 16.6821L33.3181 12.9278C33.5526 12.526 33.9389 12.2329 34.3919 12.1128C34.845 11.9928 35.3277 12.0556 35.7339 12.2876C36.14 12.5195 36.4364 12.9015 36.5578 13.3496C36.6792 13.7977 36.6157 14.2751 36.3812 14.6768L34.1897 18.4312C34.0344 18.6974 33.8109 18.9184 33.5417 19.072C33.2726 19.2256 32.9673 19.3062 32.6566 19.306Z" fill="black"/>
</g>
</g>
<defs>
<clipPath id="clip0_171_277">
<rect width="28.6184" height="25" fill="white" transform="translate(8 12)"/>
</clipPath>
</defs>
</svg>
