<svg width="453" height="504" viewBox="0 0 453 504" fill="none" xmlns="http://www.w3.org/2000/svg">
<path d="M0 1.99999C0 0.895423 0.895431 0 2 0H451C452.105 0 453 0.895431 453 2V502C453 503.105 452.105 504 451 504H2.00001C0.895441 504 0 503.105 0 502V1.99999Z" fill="#AFAFAF"/>
<g clip-path="url(#clip0_0_1)">
<path d="M408 238.25C420.841 238.25 431.25 227.841 431.25 215C431.25 202.159 420.841 191.75 408 191.75C395.159 191.75 384.75 202.159 384.75 215C384.75 227.841 395.159 238.25 408 238.25Z" fill="white" fill-opacity="0.3" stroke="#64748B" stroke-width="1.5"/>
<path d="M409 210L414 215M414 215L409 220M414 215H402" stroke="#1E293B" stroke-width="2" stroke-linecap="round" stroke-linejoin="round"/>
</g>
<path d="M35 304C39.4183 304 43 300.418 43 296C43 291.582 39.4183 288 35 288C30.5817 288 27 291.582 27 296C27 300.418 30.5817 304 35 304Z" stroke="#1E293B" stroke-width="1.5" stroke-linecap="round" stroke-linejoin="round"/>
<path d="M45 306L40.65 301.65" stroke="#1E293B" stroke-width="1.5" stroke-linecap="round" stroke-linejoin="round"/>
<g clip-path="url(#clip1_0_1)">
<path d="M13 29.6248H20.7504L26.9932 48.8006L33.1877 29.6248H40.1844L30.6945 56.4456H22.5479L13 29.6248Z" fill="#1E293B"/>
<path d="M49.2008 29.6248H42.0012V56.4456H49.2008V29.6248Z" fill="#1E293B"/>
<path d="M51.4429 48.0294H58.2076C58.5071 50.4411 59.6475 51.8275 62.7979 51.8275C65.6004 51.8275 66.8953 50.7535 66.8953 48.8984C66.8953 47.0433 65.3491 46.2817 61.5996 45.7154C54.6513 44.6414 51.9357 42.5911 51.9357 37.3577C51.9357 31.7729 56.9319 29 62.276 29C68.0743 29 72.4231 31.1578 73.0802 37.3089H66.4411C66.0353 35.1023 64.8369 34.0771 62.3437 34.0771C59.8504 34.0771 58.6424 35.1999 58.6424 36.85C58.6424 38.5001 59.8891 39.2031 63.6869 39.7791C70.239 40.7555 73.834 42.4446 73.834 48.1856C73.834 53.9267 69.7365 56.973 62.8365 56.973C55.9366 56.973 51.6941 53.79 51.4429 47.9904" fill="#1E293B"/>
<path d="M83.3336 29.6248H76.134V56.4456H83.3336V29.6248Z" fill="#1E293B"/>
<path d="M85.8749 43.3623V42.9522C85.8749 34.4968 91.7215 29.0096 99.3173 29.0096C106.082 29.0096 112.064 33.0616 112.064 42.6788V44.7292H93.2098C93.4127 49.1912 95.761 51.7493 99.7135 51.7493C103.057 51.7493 104.71 50.2652 105.154 48.0098H112.006C111.156 53.8094 106.662 57.0412 99.5106 57.0412C91.6152 57.0412 85.8652 51.9641 85.8652 43.3721L85.8749 43.3623ZM105.009 40.15C104.758 36.0981 102.758 34.1453 99.3076 34.1453C96.0606 34.1453 93.8669 36.3519 93.3161 40.15H105.009Z" fill="#1E293B"/>
<path d="M114.306 29.6248H121.554V34.7507C123.206 31.1577 125.758 29.2635 130 29.2147V36.1372C124.656 36.1372 121.554 37.8849 121.554 42.9718V56.4457H114.306V29.6248Z" fill="#1E293B"/>
<path d="M124.318 53.5557C124.329 52.9906 124.505 52.4415 124.824 51.9772C125.144 51.5129 125.591 51.1541 126.111 50.9458C126.631 50.7375 127.201 50.6889 127.748 50.8062C128.295 50.9235 128.796 51.2014 129.188 51.6051C129.579 52.0088 129.844 52.5203 129.949 53.0755C130.054 53.6306 129.994 54.2048 129.778 54.7259C129.561 55.247 129.197 55.6919 128.731 56.0048C128.265 56.3177 127.718 56.4847 127.159 56.4848C126.781 56.4849 126.407 56.4087 126.058 56.2608C125.71 56.1129 125.394 55.8962 125.129 55.6234C124.865 55.3506 124.656 55.0272 124.517 54.6722C124.378 54.3171 124.31 53.9376 124.318 53.5557ZM129.604 53.5557C129.62 53.2234 129.568 52.8913 129.452 52.58C129.336 52.2688 129.157 51.9849 128.928 51.746C128.699 51.5072 128.424 51.3183 128.119 51.1913C127.815 51.0642 127.488 51.0016 127.159 51.0074C126.829 51.0057 126.502 51.0718 126.199 51.2015C125.895 51.3312 125.62 51.5219 125.392 51.762C125.163 52.0021 124.985 52.2867 124.869 52.5983C124.752 52.91 124.7 53.2424 124.714 53.5752C124.714 54.2304 124.972 54.8587 125.43 55.3219C125.889 55.7852 126.51 56.0454 127.159 56.0454C127.807 56.0454 128.429 55.7852 128.888 55.3219C129.346 54.8587 129.604 54.2304 129.604 53.5752V53.5557ZM126.212 52.0326H127.178C127.816 52.0326 128.241 52.3157 128.241 52.9113C128.255 53.1031 128.196 53.293 128.075 53.4419C127.955 53.5908 127.783 53.6874 127.594 53.7119L128.425 55.0202H127.893L127.12 53.79H126.695V55.0202H126.222L126.212 52.0326ZM127.178 53.4385C127.584 53.4385 127.787 53.2628 127.787 52.9406C127.787 52.5793 127.574 52.4329 127.178 52.4329H126.705V53.4092L127.178 53.4385Z" fill="#1E293B"/>
</g>
<g clip-path="url(#clip2_0_1)">
<path d="M87 305H71" stroke="#1E293B" stroke-width="2" stroke-linecap="round" stroke-linejoin="round"/>
<path d="M87 297H75" stroke="#1E293B" stroke-width="2" stroke-linecap="round" stroke-linejoin="round"/>
<path d="M87 289H71" stroke="#1E293B" stroke-width="2" stroke-linecap="round" stroke-linejoin="round"/>
</g>
<g clip-path="url(#clip3_0_1)">
<path d="M170 305L180 295M170 295L180 305" stroke="white" stroke-width="1.67" stroke-linecap="round" stroke-linejoin="round"/>
</g>
<g clip-path="url(#clip4_0_1)">
<path d="M408 174.5C416.56 174.5 423.5 167.56 423.5 159C423.5 150.44 416.56 143.5 408 143.5C399.44 143.5 392.5 150.44 392.5 159C392.5 167.56 399.44 174.5 408 174.5Z" fill="white" stroke="#CBD5E1"/>
<path d="M408.667 156L412 159M412 159L408.667 162M412 159H404" stroke="#1E293B" stroke-width="1.13" stroke-linecap="round" stroke-linejoin="round"/>
</g>
<g clip-path="url(#clip5_0_1)">
<path d="M353 174.5C361.56 174.5 368.5 167.56 368.5 159C368.5 150.44 361.56 143.5 353 143.5C344.44 143.5 337.5 150.44 337.5 159C337.5 167.56 344.44 174.5 353 174.5Z" fill="white" stroke="#CBD5E1"/>
<path d="M352.333 162L349 159M349 159L352.333 156M349 159H357" stroke="#1E293B" stroke-width="1.13" stroke-linecap="round" stroke-linejoin="round"/>
</g>
<g clip-path="url(#clip6_0_1)">
<mask id="mask0_0_1" style="mask-type:luminance" maskUnits="userSpaceOnUse" x="13" y="89" width="87" height="76">
<path d="M100 89H13V165H100V89Z" fill="white"/>
</mask>
<g mask="url(#mask0_0_1)">
<path d="M18.444 99.769C21.4507 99.769 23.8881 97.3583 23.8881 94.3845C23.8881 91.4107 21.4507 89 18.444 89C15.4374 89 13 91.4107 13 94.3845C13 97.3583 15.4374 99.769 18.444 99.769Z" fill="white"/>
<path d="M31.0679 121.339C30.1247 121.338 29.1984 121.091 28.3819 120.624C27.5655 120.157 26.8876 119.486 26.4164 118.677C25.9452 117.869 25.6972 116.953 25.6973 116.02C25.6974 115.087 25.9455 114.171 26.4169 113.363L39.0073 91.7892C39.3605 91.1845 39.8306 90.6545 40.3909 90.2295C40.9511 89.8045 41.5905 89.4927 42.2726 89.3121C42.9547 89.1315 43.666 89.0856 44.366 89.1769C45.0661 89.2682 45.741 89.4949 46.3524 89.8443C46.9639 90.1936 47.4997 90.6586 47.9294 91.2127C48.3591 91.7668 48.6743 92.3993 48.8569 93.0739C49.0395 93.7485 49.086 94.452 48.9937 95.1444C48.9014 95.8368 48.6721 96.5044 48.3189 97.1091L35.7319 118.68C35.2596 119.49 34.5797 120.162 33.7608 120.629C32.9419 121.095 32.0131 121.34 31.0679 121.339Z" fill="white"/>
<path d="M43.7924 143.139C42.8492 143.138 41.9229 142.891 41.1064 142.424C40.29 141.957 39.6122 141.285 39.141 140.477C38.6698 139.669 38.4218 138.752 38.4219 137.819C38.4219 136.886 38.6701 135.97 39.1414 135.162L43.1851 128.235C43.8979 127.014 45.0722 126.123 46.4494 125.758C47.8266 125.393 49.294 125.584 50.5288 126.289C51.7636 126.994 52.6646 128.155 53.0337 129.517C53.4027 130.88 53.2096 132.331 52.4967 133.552L48.4537 140.479C47.9815 141.288 47.302 141.96 46.4837 142.427C45.6654 142.894 44.7371 143.14 43.7924 143.139Z" fill="white"/>
<path d="M58.5757 117.814C57.6325 117.812 56.7062 117.566 55.8897 117.099C55.0733 116.632 54.3954 115.96 53.9242 115.152C53.453 114.344 53.205 113.428 53.2051 112.495C53.2052 111.562 53.4533 110.645 53.9247 109.837L64.4338 91.8341C65.1467 90.6128 66.3209 89.7216 67.6981 89.3566C69.0754 88.9916 70.5428 89.1827 71.7776 89.8878C73.0124 90.5929 73.9134 91.7542 74.2824 93.1164C74.6515 94.4786 74.4583 95.93 73.7454 97.1512L63.2363 115.154C62.7643 115.964 62.085 116.636 61.2667 117.103C60.4485 117.569 59.5203 117.815 58.5757 117.814Z" fill="white"/>
<path d="M56.5541 165C55.6109 164.999 54.6846 164.752 53.8682 164.285C53.0517 163.818 52.3739 163.146 51.9027 162.338C51.4315 161.53 51.1835 160.613 51.1836 159.68C51.1837 158.747 51.4318 157.831 51.9031 157.023L72.5636 121.631C73.2765 120.41 74.4507 119.519 75.828 119.154C77.2052 118.789 78.6726 118.98 79.9074 119.685C81.1422 120.39 82.0432 121.552 82.4123 122.914C82.7813 124.276 82.5881 125.727 81.8752 126.949L61.2147 162.34C60.7428 163.149 60.0635 163.822 59.2453 164.289C58.427 164.756 57.4988 165.001 56.5541 165Z" fill="white"/>
<path d="M87.9559 111.21C87.0127 111.209 86.0865 110.962 85.2701 110.495C84.4538 110.028 83.776 109.357 83.3049 108.548C82.8338 107.74 82.5858 106.824 82.5859 105.891C82.5861 104.958 82.8342 104.042 83.3056 103.234L89.967 91.8205C90.6799 90.5992 91.8541 89.708 93.2314 89.343C94.6086 88.978 96.076 89.1691 97.3108 89.8742C98.5456 90.5793 99.4466 91.7406 99.8156 93.1028C100.185 94.465 99.9915 95.9163 99.2786 97.1376L92.6165 108.551C92.1444 109.36 91.4651 110.032 90.6468 110.499C89.8286 110.966 88.9005 111.211 87.9559 111.21Z" fill="white"/>
</g>
</g>
<g clip-path="url(#clip7_0_1)">
<path d="M36.611 414.087L35.9629 416.696" stroke="#81E0E5" stroke-width="1.5" stroke-linecap="round" stroke-linejoin="round"/>
<path d="M45.0368 416.696L44.3887 414.087" stroke="#81E0E5" stroke-width="1.5" stroke-linecap="round" stroke-linejoin="round"/>
<path d="M58 404.957H23" stroke="#81E0E5" stroke-width="1.5" stroke-linecap="round" stroke-linejoin="round"/>
<path d="M56.0556 388H24.9444C23.8706 388 23 388.876 23 389.957V409.522C23 410.602 23.8706 411.478 24.9444 411.478H56.0556C57.1294 411.478 58 410.602 58 409.522V389.957C58 388.876 57.1294 388 56.0556 388Z" stroke="#81E0E5" stroke-width="1.5" stroke-linecap="round" stroke-linejoin="round"/>
<path d="M40.4997 408.869C40.8577 408.869 41.1479 408.577 41.1479 408.217C41.1479 407.856 40.8577 407.565 40.4997 407.565C40.1417 407.565 39.8516 407.856 39.8516 408.217C39.8516 408.577 40.1417 408.869 40.4997 408.869Z" stroke="#81E0E5" stroke-width="1.5" stroke-linecap="round" stroke-linejoin="round"/>
<path d="M37.2598 418H43.7412" stroke="#81E0E5" stroke-width="1.5" stroke-linecap="round" stroke-linejoin="round"/>
<path d="M35.9629 416.695C35.9629 417.041 36.0995 417.373 36.3426 417.618C36.5857 417.862 36.9154 418 37.2592 418" stroke="#81E0E5" stroke-width="1.5" stroke-linecap="round" stroke-linejoin="round"/>
<path d="M45.0365 416.695C45.0365 417.041 44.9 417.373 44.6569 417.618C44.4138 417.862 44.084 418 43.7402 418" stroke="#81E0E5" stroke-width="1.5" stroke-linecap="round" stroke-linejoin="round"/>
</g>
<g clip-path="url(#clip8_0_1)">
<path d="M353 238.25C365.841 238.25 376.25 227.841 376.25 215C376.25 202.159 365.841 191.75 353 191.75C340.159 191.75 329.75 202.159 329.75 215C329.75 227.841 340.159 238.25 353 238.25Z" fill="white" fill-opacity="0.3" stroke="#64748B" stroke-width="1.5"/>
<path d="M352 220L347 215M347 215L352 210M347 215H359" stroke="#1E293B" stroke-width="2" stroke-linecap="round" stroke-linejoin="round"/>
</g>
<path d="M2 1H451V-1H2V1ZM452 2V502H454V2H452ZM451 503H2.00001V505H451V503ZM1 502V1.99999H-1V502H1ZM2.00001 503C1.44772 503 1 502.552 1 502H-1C-1 503.657 0.343164 505 2.00001 505V503ZM452 502C452 502.552 451.552 503 451 503V505C452.657 505 454 503.657 454 502H452ZM451 1C451.552 1 452 1.44772 452 2H454C454 0.343139 452.657 -1 451 -1V1ZM2 -1C0.343151 -1 -1 0.343133 -1 1.99999H1C1 1.44771 1.44771 1 2 1V-1Z" fill="black" fill-opacity="0.1"/>
<defs>
<clipPath id="clip0_0_1">
<rect width="48" height="48" fill="white" transform="translate(384 191)"/>
</clipPath>
<clipPath id="clip1_0_1">
<rect width="117" height="29" fill="white" transform="translate(13 29)"/>
</clipPath>
<clipPath id="clip2_0_1">
<rect width="18" height="18" fill="white" transform="translate(70 288)"/>
</clipPath>
<clipPath id="clip3_0_1">
<rect width="12" height="12" fill="white" transform="translate(169 294)"/>
</clipPath>
<clipPath id="clip4_0_1">
<rect width="32" height="32" fill="white" transform="translate(392 143)"/>
</clipPath>
<clipPath id="clip5_0_1">
<rect width="32" height="32" fill="white" transform="translate(337 143)"/>
</clipPath>
<clipPath id="clip6_0_1">
<rect width="87" height="76" fill="white" transform="translate(13 89)"/>
</clipPath>
<clipPath id="clip7_0_1">
<rect width="37" height="32" fill="white" transform="translate(22 387)"/>
</clipPath>
<clipPath id="clip8_0_1">
<rect width="48" height="48" fill="white" transform="translate(329 191)"/>
</clipPath>
</defs>
</svg>
