<svg width="117" height="29" viewBox="0 0 117 29" fill="none" xmlns="http://www.w3.org/2000/svg">
<g clip-path="url(#clip0_26_30)">
<path d="M0 0.624756H7.7504L13.9932 19.8006L20.1877 0.624756H27.1844L17.6945 27.4456H9.54787L0 0.624756Z" fill="#1E293B"/>
<path d="M36.2008 0.624756H29.0012V27.4456H36.2008V0.624756Z" fill="#1E293B"/>
<path d="M38.4429 19.0294H45.2076C45.5071 21.4411 46.6475 22.8275 49.7979 22.8275C52.6004 22.8275 53.8953 21.7535 53.8953 19.8984C53.8953 18.0433 52.3491 17.2817 48.5996 16.7154C41.6513 15.6414 38.9357 13.5911 38.9357 8.35771C38.9357 2.77289 43.9319 0 49.276 0C55.0743 0 59.4231 2.15777 60.0802 8.3089H53.4411C53.0353 6.1023 51.8369 5.07712 49.3437 5.07712C46.8504 5.07712 45.6424 6.19994 45.6424 7.85C45.6424 9.50007 46.8891 10.2031 50.6869 10.7791C57.239 11.7555 60.834 13.4446 60.834 19.1856C60.834 24.9267 56.7365 27.973 49.8365 27.973C42.9366 27.973 38.6941 24.79 38.4429 18.9904" fill="#1E293B"/>
<path d="M70.3336 0.624756H63.134V27.4456H70.3336V0.624756Z" fill="#1E293B"/>
<path d="M72.8749 14.3623V13.9522C72.8749 5.49684 78.7215 0.00964355 86.3173 0.00964355C93.082 0.00964355 99.0639 4.06157 99.0639 13.6788V15.7292H80.2098C80.4127 20.1912 82.761 22.7493 86.7135 22.7493C90.0572 22.7493 91.7097 21.2652 92.1543 19.0098H99.0059C98.1555 24.8094 93.6618 28.0412 86.5106 28.0412C78.6152 28.0412 72.8652 22.9641 72.8652 14.3721L72.8749 14.3623ZM92.0093 11.15C91.758 7.09808 89.7576 5.14534 86.3076 5.14534C83.0606 5.14534 80.8669 7.35194 80.3161 11.15H92.0093Z" fill="#1E293B"/>
<path d="M101.306 0.624799H108.554V5.75074C110.206 2.1577 112.758 0.263541 117 0.214722V7.13718C111.656 7.13718 108.554 8.88488 108.554 13.9718V27.4457H101.306V0.624799Z" fill="#1E293B"/>
<path d="M111.318 24.5557C111.329 23.9906 111.505 23.4415 111.824 22.9772C112.144 22.5129 112.591 22.1541 113.111 21.9458C113.631 21.7375 114.201 21.6889 114.748 21.8062C115.295 21.9235 115.796 22.2014 116.188 22.6051C116.579 23.0088 116.844 23.5203 116.949 24.0755C117.054 24.6306 116.994 25.2048 116.778 25.7259C116.561 26.247 116.197 26.6919 115.731 27.0048C115.265 27.3177 114.718 27.4847 114.159 27.4848C113.781 27.4849 113.407 27.4087 113.058 27.2608C112.71 27.1129 112.394 26.8962 112.129 26.6234C111.865 26.3506 111.656 26.0272 111.517 25.6722C111.378 25.3171 111.31 24.9376 111.318 24.5557ZM116.604 24.5557C116.62 24.2234 116.568 23.8913 116.452 23.58C116.336 23.2688 116.157 22.9849 115.928 22.746C115.699 22.5072 115.424 22.3183 115.119 22.1913C114.815 22.0642 114.488 22.0016 114.159 22.0074C113.829 22.0057 113.502 22.0718 113.199 22.2015C112.895 22.3312 112.62 22.5219 112.392 22.762C112.163 23.0021 111.985 23.2867 111.869 23.5983C111.752 23.91 111.7 24.2424 111.714 24.5752C111.714 25.2304 111.972 25.8587 112.43 26.3219C112.889 26.7852 113.51 27.0454 114.159 27.0454C114.807 27.0454 115.429 26.7852 115.888 26.3219C116.346 25.8587 116.604 25.2304 116.604 24.5752V24.5557ZM113.212 23.0326H114.178C114.816 23.0326 115.241 23.3157 115.241 23.9113C115.255 24.1031 115.196 24.293 115.075 24.4419C114.955 24.5908 114.783 24.6874 114.594 24.7119L115.425 26.0202H114.893L114.12 24.79H113.695V26.0202H113.222L113.212 23.0326ZM114.178 24.4385C114.584 24.4385 114.787 24.2628 114.787 23.9406C114.787 23.5793 114.574 23.4329 114.178 23.4329H113.705V24.4092L114.178 24.4385Z" fill="#1E293B"/>
</g>
<defs>
<clipPath id="clip0_26_30">
<rect width="117" height="29" fill="white"/>
</clipPath>
</defs>
</svg>
