<svg width="24" height="24" viewBox="0 0 24 24" fill="none" xmlns="http://www.w3.org/2000/svg">
<mask id="mask0_81_266" style="mask-type:alpha" maskUnits="userSpaceOnUse" x="0" y="0" width="24" height="24">
<rect width="24" height="24" fill="#D9D9D9"/>
</mask>
<g mask="url(#mask0_81_266)">
<path d="M3.3255 14.6511C2.68599 14.6511 2.13852 14.4234 1.6831 13.968C1.2277 13.5125 1 12.9651 1 12.3256C1 11.6861 1.2277 11.1386 1.6831 10.6832C2.13852 10.2277 2.68599 10 3.3255 10C3.96503 10 4.51249 10.2277 4.96789 10.6832C5.42332 11.1386 5.65103 11.6861 5.65103 12.3256C5.65103 12.9651 5.42332 13.5125 4.96789 13.968C4.51249 14.4234 3.96503 14.6511 3.3255 14.6511ZM12.27 14.6511C11.6305 14.6511 11.083 14.4234 10.6276 13.968C10.1722 13.5125 9.94446 12.9651 9.94446 12.3256C9.94446 11.6861 10.1722 11.1386 10.6276 10.6832C11.083 10.2277 11.6305 10 12.27 10C12.9095 10 13.457 10.2277 13.9124 10.6832C14.3678 11.1386 14.5955 11.6861 14.5955 12.3256C14.5955 12.9651 14.3678 13.5125 13.9124 13.968C13.457 14.4234 12.9095 14.6511 12.27 14.6511ZM21.2145 14.6511C20.575 14.6511 20.0275 14.4234 19.5721 13.968C19.1167 13.5125 18.889 12.9651 18.889 12.3256C18.889 11.6861 19.1167 11.1386 19.5721 10.6832C20.0275 10.2277 20.575 10 21.2145 10C21.854 10 22.4015 10.2277 22.8569 10.6832C23.3123 11.1386 23.54 11.6861 23.54 12.3256C23.54 12.9651 23.3123 13.5125 22.8569 13.968C22.4015 14.4234 21.854 14.6511 21.2145 14.6511Z" fill="#475569"/>
</g>
</svg>
