<svg width="24" height="24" viewBox="0 0 24 24" fill="none" xmlns="http://www.w3.org/2000/svg">
<path d="M4.41027 22.2308C3.73676 22.2308 3.16667 21.9974 2.7 21.5308C2.23333 21.0641 2 20.494 2 19.8205V16.2308H3.99997V19.8205C3.99997 19.9231 4.04271 20.0171 4.12817 20.1026C4.21366 20.1881 4.3077 20.2308 4.41027 20.2308H19.5897C19.6923 20.2308 19.7863 20.1881 19.8718 20.1026C19.9573 20.0171 20 19.9231 20 19.8205V16.2308H22V19.8205C22 20.494 21.7667 21.0641 21.3 21.5308C20.8333 21.9974 20.2632 22.2308 19.5897 22.2308H4.41027ZM12 17.0513L6.30775 11.359L7.71285 9.91289L11 13.2001V2H13V13.2001L16.2871 9.91289L17.6923 11.359L12 17.0513Z" fill="#475569"/>
</svg>
